<svg width="171" height="182" viewBox="0 0 171 182" fill="none" xmlns="http://www.w3.org/2000/svg">
<circle cx="37.5056" cy="120.709" r="32.9875" transform="rotate(-85.4295 37.5056 120.709)" fill="#410DAE"/>
<circle cx="130.486" cy="51.9845" r="23.6985" transform="rotate(-85.4295 130.486 51.9845)" fill="#410DAE"/>
<circle cx="31.6889" cy="170.813" r="10.8355" transform="rotate(-85.4295 31.6889 170.813)" fill="#410DAE"/>
<circle cx="137.613" cy="128.688" r="32.9875" fill="#5621C6" fill-opacity="0.6"/>
<circle cx="56.05" cy="44.225" r="20.3" fill="#5621C6" fill-opacity="0.6"/>
<rect x="14" y="29" width="145" height="145" rx="72.5" fill="#410DAE"/>
<path d="M83.368 87.52C83.224 86.928 82.92 86.504 82.456 86.248C81.992 85.992 81.48 85.872 80.92 85.888C80.344 85.904 79.832 86.048 79.384 86.32C78.936 86.592 78.56 86.944 78.256 87.376C77.968 87.808 77.744 88.296 77.584 88.84C77.44 89.368 77.376 89.904 77.392 90.448C77.904 89.936 78.488 89.552 79.144 89.296C79.816 89.04 80.512 88.912 81.232 88.912C82.976 88.928 84.32 89.424 85.264 90.4C86.224 91.376 86.712 92.72 86.728 94.432C86.728 95.296 86.552 96.096 86.2 96.832C85.848 97.568 85.4 98.176 84.856 98.656C84.296 99.152 83.648 99.528 82.912 99.784C82.176 100.04 81.376 100.152 80.512 100.12C79.328 100.104 78.328 99.856 77.512 99.376C76.696 98.896 76.032 98.272 75.52 97.504C75.024 96.736 74.664 95.864 74.44 94.888C74.232 93.912 74.128 92.912 74.128 91.888C74.112 90.656 74.256 89.424 74.56 88.192C74.88 86.96 75.408 85.912 76.144 85.048C76.672 84.376 77.328 83.84 78.112 83.44C78.912 83.04 79.848 82.832 80.92 82.816C81.736 82.8 82.488 82.896 83.176 83.104C83.864 83.296 84.464 83.608 84.976 84.04C85.456 84.424 85.848 84.904 86.152 85.48C86.472 86.056 86.672 86.736 86.752 87.52H83.368ZM80.536 97.072C80.92 97.088 81.28 97.04 81.616 96.928C81.952 96.816 82.24 96.656 82.48 96.448C82.72 96.224 82.912 95.96 83.056 95.656C83.2 95.336 83.28 94.992 83.296 94.624C83.328 93.76 83.096 93.088 82.6 92.608C82.104 92.112 81.44 91.872 80.608 91.888C79.888 91.904 79.28 92.12 78.784 92.536C78.304 92.936 78.032 93.496 77.968 94.216C77.936 94.584 77.968 94.936 78.064 95.272C78.176 95.608 78.344 95.912 78.568 96.184C78.792 96.44 79.064 96.648 79.384 96.808C79.72 96.968 80.104 97.056 80.536 97.072ZM89.3976 100L95.6376 86.104H87.7656V83.008H99.5976V85.6L93.2856 100H89.3976Z" fill="white" fill-opacity="0.7"/>
<path d="M34.616 122.098C34.028 122.098 33.51 122.009 33.062 121.832C32.6233 121.645 32.2547 121.389 31.956 121.062C31.6667 120.726 31.4473 120.329 31.298 119.872C31.158 119.405 31.088 118.892 31.088 118.332C31.088 117.772 31.1627 117.259 31.312 116.792C31.4707 116.325 31.704 115.924 32.012 115.588C32.32 115.252 32.6933 114.986 33.132 114.79C33.5707 114.594 34.0793 114.496 34.658 114.496C35.0687 114.496 35.4467 114.543 35.792 114.636C36.1467 114.72 36.4593 114.865 36.73 115.07C37.0007 115.266 37.234 115.518 37.43 115.826C37.626 116.125 37.7613 116.489 37.836 116.918H36.184C36.1 116.601 35.918 116.358 35.638 116.19C35.3673 116.013 35.0313 115.924 34.63 115.924C34.2753 115.924 33.972 115.989 33.72 116.12C33.468 116.251 33.2627 116.428 33.104 116.652C32.9453 116.876 32.8287 117.137 32.754 117.436C32.6887 117.725 32.656 118.029 32.656 118.346C32.656 118.673 32.6933 118.981 32.768 119.27C32.8427 119.559 32.9593 119.811 33.118 120.026C33.286 120.231 33.496 120.399 33.748 120.53C34 120.651 34.3033 120.712 34.658 120.712C35.078 120.712 35.4233 120.619 35.694 120.432C35.974 120.245 36.1513 119.998 36.226 119.69H37.864C37.7893 120.11 37.6493 120.474 37.444 120.782C37.248 121.09 37.0053 121.342 36.716 121.538C36.4267 121.734 36.1047 121.879 35.75 121.972C35.3953 122.056 35.0173 122.098 34.616 122.098ZM39.847 118.486C39.8936 117.851 39.9216 117.221 39.931 116.596C39.9496 115.961 39.9683 115.303 39.987 114.622H45.503V122H43.893V116.008H41.471C41.4523 116.465 41.4336 116.923 41.415 117.38C41.4056 117.828 41.387 118.276 41.359 118.724C41.3496 118.892 41.331 119.093 41.303 119.326C41.2843 119.55 41.2563 119.779 41.219 120.012C41.1816 120.236 41.1256 120.451 41.051 120.656C40.9763 120.852 40.883 121.034 40.771 121.202C40.575 121.482 40.3136 121.687 39.987 121.818C39.6696 121.939 39.301 122 38.881 122H38.489V120.628C38.769 120.628 38.993 120.563 39.161 120.432C39.3383 120.292 39.469 120.119 39.553 119.914C39.6463 119.699 39.7116 119.471 39.749 119.228C39.7956 118.976 39.8283 118.729 39.847 118.486ZM50.559 114.496C51.147 114.496 51.665 114.589 52.113 114.776C52.561 114.963 52.939 115.224 53.247 115.56C53.5644 115.887 53.8024 116.283 53.961 116.75C54.1197 117.217 54.199 117.735 54.199 118.304C54.199 118.883 54.1197 119.405 53.961 119.872C53.8117 120.329 53.583 120.726 53.275 121.062C52.967 121.398 52.5844 121.655 52.127 121.832C51.679 122.009 51.1564 122.098 50.559 122.098C49.971 122.098 49.453 122.009 49.005 121.832C48.557 121.645 48.179 121.389 47.871 121.062C47.5724 120.726 47.3437 120.325 47.185 119.858C47.0357 119.391 46.961 118.873 46.961 118.304C46.961 117.735 47.0357 117.217 47.185 116.75C47.3437 116.283 47.577 115.887 47.885 115.56C48.193 115.224 48.571 114.963 49.019 114.776C49.467 114.589 49.9804 114.496 50.559 114.496ZM50.559 120.712C50.923 120.712 51.231 120.651 51.483 120.53C51.7444 120.399 51.9544 120.227 52.113 120.012C52.281 119.797 52.4024 119.545 52.477 119.256C52.561 118.967 52.603 118.654 52.603 118.318C52.603 117.982 52.561 117.669 52.477 117.38C52.4024 117.081 52.281 116.825 52.113 116.61C51.9544 116.395 51.7444 116.227 51.483 116.106C51.231 115.985 50.923 115.924 50.559 115.924C50.2044 115.924 49.8964 115.985 49.635 116.106C49.383 116.227 49.173 116.395 49.005 116.61C48.8464 116.825 48.725 117.081 48.641 117.38C48.5664 117.669 48.529 117.982 48.529 118.318C48.529 118.654 48.5664 118.967 48.641 119.256C48.725 119.545 48.8464 119.797 49.005 120.012C49.173 120.227 49.383 120.399 49.635 120.53C49.8964 120.651 50.2044 120.712 50.559 120.712ZM55.6493 114.622H58.7993C59.1259 114.622 59.4573 114.641 59.7933 114.678C60.1293 114.706 60.4326 114.785 60.7033 114.916C60.9833 115.047 61.2073 115.238 61.3753 115.49C61.5526 115.733 61.6459 116.064 61.6553 116.484C61.6553 116.811 61.5806 117.114 61.4313 117.394C61.2819 117.674 61.0439 117.903 60.7173 118.08C61.1653 118.201 61.4919 118.416 61.6973 118.724C61.9119 119.023 62.0193 119.382 62.0193 119.802C62.0193 120.194 61.9399 120.535 61.7812 120.824C61.6226 121.104 61.4126 121.333 61.1513 121.51C60.8899 121.678 60.5866 121.804 60.2413 121.888C59.8959 121.963 59.5319 122 59.1493 122H55.6493V114.622ZM57.2593 115.952V117.646H58.2253C58.4399 117.646 58.6593 117.646 58.8833 117.646C59.1166 117.637 59.3219 117.604 59.4993 117.548C59.6859 117.492 59.8353 117.403 59.9473 117.282C60.0686 117.161 60.1293 116.988 60.1293 116.764C60.1293 116.568 60.0826 116.419 59.9893 116.316C59.9053 116.204 59.7979 116.12 59.6673 116.064C59.5366 116.008 59.3873 115.975 59.2193 115.966C59.0606 115.957 58.9113 115.952 58.7713 115.952H57.2593ZM58.8833 120.656C59.0699 120.656 59.2519 120.647 59.4293 120.628C59.6159 120.609 59.7793 120.567 59.9193 120.502C60.0686 120.427 60.1899 120.334 60.2833 120.222C60.3766 120.101 60.4233 119.942 60.4233 119.746C60.4233 119.391 60.3113 119.153 60.0873 119.032C59.8726 118.911 59.6066 118.85 59.2893 118.85H57.2593V120.656H58.8833ZM68.2569 121.09C68.0142 121.435 67.6922 121.692 67.2909 121.86C66.8896 122.019 66.4416 122.098 65.9469 122.098C65.5549 122.098 65.1956 122.051 64.8689 121.958C64.5516 121.865 64.2716 121.725 64.0289 121.538C63.7862 121.342 63.5949 121.104 63.4549 120.824C63.3149 120.535 63.2449 120.208 63.2449 119.844C63.2449 119.443 63.3242 119.102 63.4829 118.822C63.6416 118.533 63.8562 118.299 64.1269 118.122C64.4069 117.945 64.7336 117.814 65.1069 117.73C65.4802 117.637 65.8722 117.59 66.2829 117.59H68.1729C68.1729 117.049 68.0516 116.629 67.8089 116.33C67.5662 116.031 67.1416 115.877 66.5349 115.868C66.1802 115.868 65.8722 115.929 65.6109 116.05C65.3589 116.171 65.1909 116.372 65.1069 116.652H63.4689C63.5249 116.26 63.6509 115.929 63.8469 115.658C64.0522 115.387 64.2949 115.163 64.5749 114.986C64.8642 114.809 65.1816 114.683 65.5269 114.608C65.8816 114.533 66.2362 114.496 66.5909 114.496C67.0482 114.496 67.4729 114.557 67.8649 114.678C68.2569 114.799 68.5976 115.005 68.8869 115.294C69.2136 115.63 69.4329 116.031 69.5449 116.498C69.6569 116.965 69.7129 117.473 69.7129 118.024V122H68.3269L68.2569 121.09ZM68.1729 118.724H66.6329C66.3622 118.724 66.0916 118.747 65.8209 118.794C65.5502 118.831 65.3169 118.929 65.1209 119.088C64.9342 119.237 64.8409 119.457 64.8409 119.746C64.8409 120.101 64.9669 120.371 65.2189 120.558C65.4802 120.735 65.7976 120.824 66.1709 120.824C66.4602 120.824 66.7262 120.787 66.9689 120.712C67.2209 120.637 67.4356 120.516 67.6129 120.348C67.7902 120.171 67.9256 119.951 68.0189 119.69C68.1216 119.419 68.1729 119.097 68.1729 118.724ZM71.5246 117.31H75.9906V118.682H71.5246V117.31ZM77.825 122V114.622H84.293V122H82.697V116.008H79.421V122H77.825ZM90.7882 121.09C90.5455 121.435 90.2235 121.692 89.8222 121.86C89.4208 122.019 88.9728 122.098 88.4782 122.098C88.0862 122.098 87.7268 122.051 87.4002 121.958C87.0828 121.865 86.8028 121.725 86.5602 121.538C86.3175 121.342 86.1262 121.104 85.9862 120.824C85.8462 120.535 85.7762 120.208 85.7762 119.844C85.7762 119.443 85.8555 119.102 86.0142 118.822C86.1728 118.533 86.3875 118.299 86.6582 118.122C86.9382 117.945 87.2648 117.814 87.6382 117.73C88.0115 117.637 88.4035 117.59 88.8142 117.59H90.7042C90.7042 117.049 90.5828 116.629 90.3402 116.33C90.0975 116.031 89.6728 115.877 89.0662 115.868C88.7115 115.868 88.4035 115.929 88.1422 116.05C87.8902 116.171 87.7222 116.372 87.6382 116.652H86.0002C86.0562 116.26 86.1822 115.929 86.3782 115.658C86.5835 115.387 86.8262 115.163 87.1062 114.986C87.3955 114.809 87.7128 114.683 88.0582 114.608C88.4128 114.533 88.7675 114.496 89.1222 114.496C89.5795 114.496 90.0042 114.557 90.3962 114.678C90.7882 114.799 91.1288 115.005 91.4182 115.294C91.7448 115.63 91.9642 116.031 92.0762 116.498C92.1882 116.965 92.2442 117.473 92.2442 118.024V122H90.8582L90.7882 121.09ZM90.7042 118.724H89.1642C88.8935 118.724 88.6228 118.747 88.3522 118.794C88.0815 118.831 87.8482 118.929 87.6522 119.088C87.4655 119.237 87.3722 119.457 87.3722 119.746C87.3722 120.101 87.4982 120.371 87.7502 120.558C88.0115 120.735 88.3288 120.824 88.7022 120.824C88.9915 120.824 89.2575 120.787 89.5002 120.712C89.7522 120.637 89.9668 120.516 90.1442 120.348C90.3215 120.171 90.4568 119.951 90.5502 119.69C90.6528 119.419 90.7042 119.097 90.7042 118.724ZM95.5538 124.87H93.9578V114.622H95.4698L95.5538 115.672C95.8245 115.289 96.1745 115 96.6038 114.804C97.0425 114.599 97.4998 114.496 97.9758 114.496C98.4798 114.496 98.9325 114.589 99.3338 114.776C99.7352 114.953 100.076 115.205 100.356 115.532C100.645 115.859 100.86 116.255 101 116.722C101.149 117.179 101.224 117.702 101.224 118.29C101.224 118.841 101.154 119.349 101.014 119.816C100.874 120.283 100.664 120.689 100.384 121.034C100.113 121.37 99.7725 121.631 99.3618 121.818C98.9605 122.005 98.4705 122.098 97.8918 122.098C97.4438 122.098 97.0145 122.028 96.6038 121.888C96.2025 121.739 95.8525 121.496 95.5538 121.16V124.87ZM97.6398 120.712C97.9852 120.712 98.2838 120.651 98.5358 120.53C98.7878 120.399 98.9932 120.227 99.1518 120.012C99.3198 119.797 99.4412 119.545 99.5158 119.256C99.5998 118.967 99.6418 118.654 99.6418 118.318C99.6418 117.982 99.5998 117.669 99.5158 117.38C99.4412 117.081 99.3198 116.825 99.1518 116.61C98.9932 116.395 98.7832 116.227 98.5218 116.106C98.2698 115.985 97.9665 115.924 97.6118 115.924C97.2945 115.924 97.0005 115.989 96.7298 116.12C96.4685 116.251 96.2492 116.423 96.0718 116.638C95.8945 116.853 95.7592 117.109 95.6658 117.408C95.5818 117.697 95.5398 117.996 95.5398 118.304C95.5398 118.64 95.5818 118.957 95.6658 119.256C95.7498 119.545 95.8758 119.797 96.0438 120.012C96.2212 120.217 96.4405 120.385 96.7018 120.516C96.9632 120.647 97.2758 120.712 97.6398 120.712ZM107.386 121.09C107.143 121.435 106.821 121.692 106.42 121.86C106.018 122.019 105.57 122.098 105.076 122.098C104.684 122.098 104.324 122.051 103.998 121.958C103.68 121.865 103.4 121.725 103.158 121.538C102.915 121.342 102.724 121.104 102.584 120.824C102.444 120.535 102.374 120.208 102.374 119.844C102.374 119.443 102.453 119.102 102.612 118.822C102.77 118.533 102.985 118.299 103.256 118.122C103.536 117.945 103.862 117.814 104.236 117.73C104.609 117.637 105.001 117.59 105.412 117.59H107.302C107.302 117.049 107.18 116.629 106.938 116.33C106.695 116.031 106.27 115.877 105.664 115.868C105.309 115.868 105.001 115.929 104.74 116.05C104.488 116.171 104.32 116.372 104.236 116.652H102.598C102.654 116.26 102.78 115.929 102.976 115.658C103.181 115.387 103.424 115.163 103.704 114.986C103.993 114.809 104.31 114.683 104.656 114.608C105.01 114.533 105.365 114.496 105.72 114.496C106.177 114.496 106.602 114.557 106.994 114.678C107.386 114.799 107.726 115.005 108.016 115.294C108.342 115.63 108.562 116.031 108.674 116.498C108.786 116.965 108.842 117.473 108.842 118.024V122H107.456L107.386 121.09ZM107.302 118.724H105.762C105.491 118.724 105.22 118.747 104.95 118.794C104.679 118.831 104.446 118.929 104.25 119.088C104.063 119.237 103.97 119.457 103.97 119.746C103.97 120.101 104.096 120.371 104.348 120.558C104.609 120.735 104.926 120.824 105.3 120.824C105.589 120.824 105.855 120.787 106.098 120.712C106.35 120.637 106.564 120.516 106.742 120.348C106.919 120.171 107.054 119.951 107.148 119.69C107.25 119.419 107.302 119.097 107.302 118.724ZM115.4 118.052C115.792 118.183 116.081 118.397 116.268 118.696C116.454 118.985 116.548 119.312 116.548 119.676C116.548 119.695 116.548 119.713 116.548 119.732C116.548 120.199 116.454 120.586 116.268 120.894C116.081 121.202 115.829 121.449 115.512 121.636C115.204 121.813 114.868 121.935 114.504 122C114.149 122.065 113.785 122.098 113.412 122.098C113.048 122.098 112.674 122.065 112.292 122C111.918 121.925 111.573 121.799 111.256 121.622C110.948 121.445 110.691 121.211 110.486 120.922C110.28 120.633 110.164 120.269 110.136 119.83H111.676C111.713 120.017 111.792 120.171 111.914 120.292C112.044 120.413 112.194 120.511 112.362 120.586C112.53 120.661 112.707 120.712 112.894 120.74C113.08 120.768 113.253 120.782 113.412 120.782C113.58 120.782 113.762 120.773 113.958 120.754C114.154 120.726 114.326 120.679 114.476 120.614C114.634 120.539 114.765 120.441 114.868 120.32C114.97 120.189 115.022 120.021 115.022 119.816C115.022 119.461 114.886 119.223 114.616 119.102C114.354 118.981 114.023 118.92 113.622 118.92H112.39V117.66H113.496C113.841 117.66 114.135 117.59 114.378 117.45C114.62 117.31 114.742 117.067 114.742 116.722C114.742 116.545 114.695 116.4 114.602 116.288C114.518 116.167 114.41 116.073 114.28 116.008C114.149 115.943 114.004 115.901 113.846 115.882C113.687 115.854 113.547 115.84 113.426 115.84C113.267 115.84 113.104 115.854 112.936 115.882C112.768 115.901 112.609 115.943 112.46 116.008C112.31 116.073 112.184 116.162 112.082 116.274C111.979 116.386 111.918 116.531 111.9 116.708H110.374C110.411 116.269 110.528 115.91 110.724 115.63C110.92 115.341 111.162 115.112 111.452 114.944C111.741 114.776 112.058 114.659 112.404 114.594C112.758 114.529 113.108 114.496 113.454 114.496C113.799 114.496 114.135 114.529 114.462 114.594C114.798 114.659 115.106 114.781 115.386 114.958C115.666 115.135 115.88 115.35 116.03 115.602C116.188 115.845 116.268 116.162 116.268 116.554C116.268 116.909 116.184 117.212 116.016 117.464C115.857 117.716 115.652 117.912 115.4 118.052ZM119.45 122H117.966V114.622H119.562V119.69L123.314 114.622H124.756V122H123.16V117.03C123.15 117.049 121.914 118.705 119.45 122ZM132.251 114.622V116.008H129.759V122H128.177V116.008H125.685V114.622H132.251ZM133.169 114.622H134.779V117.114H136.109C136.519 117.114 136.902 117.151 137.257 117.226C137.611 117.301 137.915 117.431 138.167 117.618C138.428 117.795 138.633 118.033 138.783 118.332C138.932 118.631 139.007 119.004 139.007 119.452C139.007 119.956 138.913 120.376 138.727 120.712C138.54 121.039 138.297 121.3 137.999 121.496C137.7 121.683 137.364 121.813 136.991 121.888C136.617 121.963 136.249 122 135.885 122H133.169V114.622ZM139.959 122V114.622H141.541V122H139.959ZM135.745 120.67C135.95 120.67 136.155 120.656 136.361 120.628C136.566 120.591 136.748 120.535 136.907 120.46C137.065 120.376 137.191 120.259 137.285 120.11C137.378 119.961 137.425 119.765 137.425 119.522C137.425 119.317 137.387 119.149 137.313 119.018C137.247 118.887 137.154 118.785 137.033 118.71C136.921 118.626 136.79 118.57 136.641 118.542C136.491 118.514 136.342 118.495 136.193 118.486H134.779V120.656L135.745 120.67Z" fill="white"/>
<circle cx="33.2125" cy="66.3375" r="32.9875" fill="#5621C6" fill-opacity="0.6"/>
</svg>
